<?xml version="1.0" encoding="UTF-8"?>
<svg xmlns="http://www.w3.org/2000/svg" width="64" height="64" viewBox="0 0 64 64">
  <defs>
    <linearGradient id="slot-top" x1="0" y1="0" x2="1" y2="1">
      <stop offset="0" stop-color="#82C0D0"/>
      <stop offset="1" stop-color="#6FB2C4"/>
    </linearGradient>
    <linearGradient id="slot-tool" x1="0" y1="0" x2="1" y2="0">
      <stop offset="0" stop-color="#F2F5F7"/>
      <stop offset="1" stop-color="#8D9AA3"/>
    </linearGradient>
  </defs>
  <g id="main-solid" stroke="#1E4A5D" stroke-width="1.7" stroke-linejoin="round">
    <polygon id="top-face" points="7,28 29,16 57,30 35,43" fill="url(#slot-top)"/>
    <polygon id="front-face" points="7,28 35,43 35,54 7,39" fill="#5199B0"/>
    <polygon id="side-face" points="35,43 57,30 57,41 35,54" fill="#356F85"/>
    <polyline fill="none" stroke="#D9F1F5" stroke-width="1.2" points="9,27.5 29,17.2 54.5,30"/>
  </g>
  <g id="feature-highlight" stroke="#1E4A5D" stroke-width="1.5" stroke-linejoin="round">
    <path fill="#E89924" d="M20 29 L29 24 L44 31.5 L35 37 L29 36 L38 31.5 L29 27 L23 30.2 L28 33 L24.5 35 Z"/>
    <path fill="#2E6277" d="M25 30 L29 27.8 L39 32.8 L35 35.2 L30.5 34.5 L35 32.3 L29 29.4 L27 30.6 L30 32.2 L28.2 33.2 Z"/>
  </g>
  <g id="tool" stroke="#596771" stroke-width="1.5" stroke-linejoin="round">
    <rect x="31" y="7" width="7" height="18" rx="1" fill="url(#slot-tool)"/>
    <path fill="#AEB8BF" d="M31 22 L38 18 L38 29 L34.5 32 L31 28 Z"/>
    <path fill="none" d="M33.2 21 L36.1 27.7 M36.1 19.7 L33 28.3"/>
    <ellipse cx="34.5" cy="7.2" rx="3.5" ry="1.6" fill="#D3DADE"/>
  </g>
  <g id="action-arrow" fill="#E89924" stroke="#9B5B16" stroke-width="1.1" stroke-linejoin="round">
    <path d="M45 13 L51 16 L48.4 17.4 L52.5 19.5 L50 21 L45.8 18.8 L43.2 20.3 Z"/>
  </g>
</svg>
